# xmcd
#
# Track frame offsets: 
#        150
#        11347
#        22013
#        35054
#        47247
#        57492
#        71634
#        89802
#        105558
#        125219
#        147580
#        180801
#        202433
#        218415
#        242427
#        274981
#        298327
#
# Disc length: 4290 seconds
#
# Revision: 0
# Processed by: cddbd v1.5.2PL0 Copyright (c) Steve Scherf et al.
# Submitted via: ExactAudioCopy v0.95b3
#
DISCID=1310c011
DTITLE=Va  - Capitol Records 50th Anniversary 1942-1992 - Disc 7
DYEAR=1900
DGENRE=
TTITLE0=Nat King Cole - Straighten Up and Fly Right
TTITLE1=5 Keys - Close Your Eyes
TTITLE2=Ed Townsend - For Your Love
TTITLE3=Nancy Wilson - How Glad I Am
TTITLE4=Lou Rawls - Love is a Hurtin' Thing
TTITLE5=Cannonball Adderley - Mercy,Mercy,Mercy
TTITLE6=Tavares - It Only Takes A Minute
TTITLE7=Sylvers - Boogie Fever
TTITLE8=Natalie Cole - I've Got Love On My Mind
TTITLE9=Peabo Bryson - Reaching for the Sky
TTITLE10=Taste of Honey - Boogie Oogie Oogie
TTITLE11=George Clinton - Atomic Dog
TTITLE12=Peabo Bryson and Roberta Flack - Tonite, I Celebrate My Love
TTITLE13=Tina Turner - Let's Stay Together-Tina Turner
TTITLE14=Freddie Jackson - Rock Me Tonite
TTITLE15=Ashford and Simpson - Solid!
TTITLE16=Hammer - Pray
EXTD=
EXTT0=
EXTT1=
EXTT2=
EXTT3=
EXTT4=
EXTT5=
EXTT6=
EXTT7=
EXTT8=
EXTT9=
EXTT10=
EXTT11=
EXTT12=
EXTT13=
EXTT14=
EXTT15=
EXTT16=
PLAYORDER=
